<?xml version="1.0" standalone="no"?>
<!DOCTYPE svg PUBLIC "-//W3C//DTD SVG 20010904//EN"
 "http://www.w3.org/TR/2001/REC-SVG-20010904/DTD/svg10.dtd">
<svg version="1.0" xmlns="http://www.w3.org/2000/svg"
 width="371.000000pt" height="100.000000pt" viewBox="0 0 371.000000 100.000000"
 preserveAspectRatio="xMidYMid meet">

<g transform="translate(0.000000,100.000000) scale(0.100000,-0.100000)"
fill="#000000" stroke="none">
<path d="M305 899 c-153 -54 -286 -106 -294 -114 -11 -11 -13 -20 -6 -31 11
-17 554 -214 589 -214 22 0 538 180 577 200 22 13 25 33 5 49 -13 11 -570 212
-584 210 -4 0 -133 -45 -287 -100z"/>
<path d="M2620 763 c-32 -12 -61 -48 -66 -85 -4 -23 -12 -38 -20 -38 -9 0 -14
-11 -14 -30 0 -20 5 -30 15 -30 13 0 15 -21 15 -130 l0 -130 40 0 39 0 3 128
3 127 28 3 c23 3 27 8 27 33 0 26 -3 29 -30 29 -16 0 -30 4 -30 9 0 23 15 43
36 52 18 6 24 16 24 39 0 26 -3 30 -27 29 -16 0 -35 -3 -43 -6z"/>
<path d="M2000 675 l0 -76 -29 22 c-35 26 -108 28 -150 3 -89 -53 -96 -206
-12 -277 41 -34 109 -37 159 -7 32 20 32 20 32 0 0 -17 7 -20 40 -20 l40 0 0
215 0 215 -40 0 -40 0 0 -75z m-15 -146 c19 -36 19 -62 0 -98 -29 -58 -111
-58 -140 0 -30 57 -14 112 38 134 40 17 83 2 102 -36z"/>
<path d="M3580 675 l0 -76 -29 22 c-35 26 -108 28 -150 3 -89 -53 -96 -206
-12 -277 41 -34 109 -37 159 -7 32 20 32 20 32 0 0 -17 7 -20 40 -20 l40 0 0
215 0 215 -40 0 -40 0 0 -75z m-15 -146 c19 -36 19 -62 0 -98 -29 -58 -111
-58 -140 0 -30 57 -14 112 38 134 40 17 83 2 102 -36z"/>
<path d="M1460 520 l0 -200 115 0 115 0 0 35 0 35 -75 0 -75 0 0 50 0 50 65 0
65 0 0 35 0 35 -65 0 -65 0 0 50 0 50 75 0 75 0 0 30 0 30 -115 0 -115 0 0
-200z"/>
<path d="M2853 640 c-79 -18 -123 -75 -123 -160 0 -100 60 -160 160 -160 101
0 160 60 160 161 0 109 -91 183 -197 159z m95 -96 c29 -33 30 -92 1 -128 -16
-20 -29 -26 -59 -26 -50 0 -80 35 -80 94 1 46 15 71 51 85 32 13 59 5 87 -25z"/>
<path d="M2160 525 c0 -130 11 -165 60 -190 37 -19 93 -19 130 0 27 14 30 14
30 0 0 -11 11 -15 40 -15 l40 0 0 160 0 160 -40 0 -40 0 0 -103 c0 -124 -11
-147 -70 -147 -59 0 -70 23 -70 147 l0 103 -40 0 -40 0 0 -115z"/>
<path d="M3120 480 l0 -160 40 0 40 0 0 104 c0 97 2 106 22 120 12 9 33 16 45
16 20 0 23 5 23 40 0 32 -4 40 -19 40 -10 0 -30 -9 -45 -21 l-26 -20 0 20 c0
18 -6 21 -40 21 l-40 0 0 -160z"/>
<path d="M1058 623 c-16 -4 -18 -19 -18 -141 0 -121 -3 -140 -20 -162 -25 -32
-25 -61 0 -92 15 -20 20 -44 22 -119 3 -93 3 -94 28 -94 25 0 25 1 28 94 2 75
7 99 22 119 25 32 25 63 0 95 -18 22 -20 40 -20 166 0 146 0 145 -42 134z"/>
<path d="M250 490 c0 -86 1 -89 30 -114 38 -31 107 -53 223 -68 145 -19 342
14 407 68 29 25 30 28 30 115 l0 88 -142 -50 c-79 -28 -157 -55 -175 -60 -31
-9 -50 -4 -315 90 l-58 20 0 -89z"/>
</g>
</svg>
