<?xml version="1.0" standalone="no"?>
<!DOCTYPE svg PUBLIC "-//W3C//DTD SVG 20010904//EN"
 "http://www.w3.org/TR/2001/REC-SVG-20010904/DTD/svg10.dtd">
<svg version="1.0" xmlns="http://www.w3.org/2000/svg"
 width="105.000000pt" height="105.000000pt" viewBox="0 0 105.000000 105.000000"
 preserveAspectRatio="xMidYMid meet">

<g transform="translate(0.000000,105.000000) scale(0.100000,-0.100000)"
fill="#000000" stroke="none">
<path d="M383 895 c-65 -33 -147 -120 -179 -190 -86 -188 1 -419 191 -509 138
-66 293 -47 422 51 65 50 151 216 122 234 -7 4 -37 -6 -68 -24 -51 -29 -64
-32 -141 -32 -68 0 -94 5 -130 23 -143 71 -212 233 -161 377 36 98 35 95 14
95 -10 0 -42 -11 -70 -25z"/>
</g>
</svg>
