<?xml version="1.0" standalone="no"?>
<!DOCTYPE svg PUBLIC "-//W3C//DTD SVG 20010904//EN"
 "http://www.w3.org/TR/2001/REC-SVG-20010904/DTD/svg10.dtd">
<svg version="1.0" xmlns="http://www.w3.org/2000/svg"
 width="46.000000pt" height="46.000000pt" viewBox="0 0 46.000000 46.000000"
 preserveAspectRatio="xMidYMid meet">

<g transform="translate(0.000000,46.000000) scale(0.100000,-0.100000)"
fill="#000000" stroke="none">
<path d="M105 447 c-42 -20 -93 -80 -100 -121 -13 -67 20 -141 77 -176 39 -24
120 -27 160 -6 27 14 29 13 99 -60 69 -71 73 -73 91 -57 18 16 16 19 -44 80
-34 35 -68 63 -75 63 -17 0 -16 15 3 52 11 22 15 48 12 85 -7 86 -62 143 -145
150 -27 2 -61 -3 -78 -10z m109 -51 c94 -39 88 -171 -10 -212 -46 -19 -101 0
-131 45 -39 58 -26 117 36 158 39 27 59 28 105 9z"/>
</g>
</svg>
